<svg width="32" height="32" viewBox="0 0 32 32" fill="none" xmlns="http://www.w3.org/2000/svg">
<path d="M16.0001 29.3333C8.63608 29.3333 2.66675 23.364 2.66675 16C2.66675 8.63596 8.63608 2.66663 16.0001 2.66663C23.3641 2.66663 29.3334 8.63596 29.3334 16C29.3334 23.364 23.3641 29.3333 16.0001 29.3333ZM14.1627 11.22C14.0825 11.1664 13.9892 11.1356 13.8929 11.1309C13.7965 11.1262 13.7007 11.1477 13.6156 11.1931C13.5305 11.2385 13.4593 11.3062 13.4096 11.3889C13.3599 11.4715 13.3336 11.5662 13.3334 11.6626V20.3373C13.3336 20.4338 13.3599 20.5284 13.4096 20.611C13.4593 20.6937 13.5305 20.7614 13.6156 20.8068C13.7007 20.8522 13.7965 20.8737 13.8929 20.869C13.9892 20.8643 14.0825 20.8335 14.1627 20.78L20.6681 16.444C20.7412 16.3953 20.8012 16.3293 20.8427 16.2518C20.8842 16.1743 20.9059 16.0878 20.9059 16C20.9059 15.9121 20.8842 15.8256 20.8427 15.7481C20.8012 15.6706 20.7412 15.6046 20.6681 15.556L14.1627 11.22Z" fill="url(#paint0_linear_42_201)"/>
<defs>
<linearGradient id="paint0_linear_42_201" x1="2.66675" y1="16" x2="25.6583" y2="9.05284" gradientUnits="userSpaceOnUse">
<stop stop-color="#FF52AF"/>
<stop offset="1" stop-color="#9F53FF"/>
</linearGradient>
</defs>
</svg>
