<svg width="32" height="32" viewBox="0 0 32 32" fill="none" xmlns="http://www.w3.org/2000/svg">
<path d="M13.1066 11.72L10.6666 12.608V17.3333H7.99993V10.7333H8.01993L15.0439 8.176C15.3693 8.052 15.7239 7.98933 16.0866 8.00133C16.8113 8.0194 17.5123 8.26281 18.0923 8.69771C18.6722 9.13261 19.1022 9.7374 19.3226 10.428C19.5706 11.2053 19.7973 11.7307 20.0026 12.004C20.6231 12.8315 21.428 13.503 22.3533 13.9652C23.2786 14.4274 24.2989 14.6675 25.3333 14.6667V17.3333C23.9563 17.3348 22.5962 17.031 21.3507 16.4438C20.1053 15.8566 19.0055 15.0006 18.1306 13.9373L17.3559 18.3333L19.9999 20.8933V30.6667H17.3333V22.6853L14.5999 20.036L13.3373 25.7667L4.14526 24.1467L4.60926 21.52L11.1746 22.6773L13.1066 11.72ZM17.9999 7.33333C17.2927 7.33333 16.6144 7.05238 16.1143 6.55228C15.6142 6.05219 15.3333 5.37391 15.3333 4.66667C15.3333 3.95942 15.6142 3.28115 16.1143 2.78105C16.6144 2.28095 17.2927 2 17.9999 2C18.7072 2 19.3855 2.28095 19.8855 2.78105C20.3856 3.28115 20.6666 3.95942 20.6666 4.66667C20.6666 5.37391 20.3856 6.05219 19.8855 6.55228C19.3855 7.05238 18.7072 7.33333 17.9999 7.33333Z" fill="url(#paint0_linear_42_197)"/>
<defs>
<linearGradient id="paint0_linear_42_197" x1="4.14526" y1="16.3333" x2="23.134" y2="12.0926" gradientUnits="userSpaceOnUse">
<stop stop-color="#FF52AF"/>
<stop offset="1" stop-color="#9F53FF"/>
</linearGradient>
</defs>
</svg>
